<svg width="64" height="64" viewBox="0 0 64 64" fill="none" xmlns="http://www.w3.org/2000/svg">
  <rect width="64" height="64" rx="32" fill="url(#paint0_linear)" fill-opacity="0.1" />
  <path d="M16 20C16 18.8954 16.8954 18 18 18H46C47.1046 18 48 18.8954 48 20V44C48 45.1046 47.1046 46 46 46H18C16.8954 46 16 45.1046 16 44V20Z" stroke="url(#paint0_linear)" stroke-width="2" />
  <path d="M16 26H48" stroke="url(#paint0_linear)" stroke-width="2" />
  <circle cx="20" cy="22" r="1.5" fill="url(#paint0_linear)" />
  <circle cx="24" cy="22" r="1.5" fill="url(#paint0_linear)" />
  <circle cx="28" cy="22" r="1.5" fill="url(#paint0_linear)" />
  <path d="M25 36L21 32L25 28" stroke="url(#paint0_linear)" stroke-width="2" stroke-linecap="round" stroke-linejoin="round" />
  <path d="M39 36L43 32L39 28" stroke="url(#paint0_linear)" stroke-width="2" stroke-linecap="round" stroke-linejoin="round" />
  <path d="M35 28L29 36" stroke="url(#paint0_linear)" stroke-width="2" stroke-linecap="round" />
  <defs>
    <linearGradient id="paint0_linear" x1="16" y1="18" x2="48" y2="46" gradientUnits="userSpaceOnUse">
      <stop stop-color="#4F46E5" />
      <stop offset="1" stop-color="#8B5CF6" />
    </linearGradient>
  </defs>
</svg>